<svg width="180" height="39" viewBox="0 0 180 39" fill="none" xmlns="http://www.w3.org/2000/svg">
<path d="M160.65 12.2209C161.756 12.2209 162.207 13.0934 163.028 13.0934C163.478 13.0934 163.828 12.8362 163.908 12.2597H165.22C164.995 13.8259 164.094 14.5813 162.906 14.5813C161.8 14.5813 161.349 13.6888 160.529 13.6888C160.078 13.6888 159.728 13.9656 159.647 14.5421H158.336C158.561 12.976 159.463 12.2209 160.65 12.2209ZM117.655 20.6941V28.1528H114.775V21.4495C114.775 20.9852 114.661 20.5646 114.433 20.1869C114.211 19.8082 113.894 19.4947 113.512 19.2782C113.135 19.05 112.714 18.9355 112.249 18.9355C111.786 18.9355 111.36 19.05 110.975 19.2782C110.599 19.4973 110.286 19.8104 110.066 20.1869C109.846 20.5646 109.736 20.9852 109.736 21.4495V28.1524H106.856L106.845 16.3511H109.724L109.736 17.4018C110.143 16.973 110.633 16.6317 111.176 16.3986C111.734 16.1467 112.336 16.0209 112.981 16.0209C113.839 16.0209 114.622 16.2333 115.33 16.658C116.028 17.0657 116.61 17.6471 117.017 18.3458C117.442 19.0462 117.655 19.8288 117.655 20.6941ZM127.966 16.3511H130.845V28.1528H127.966L127.836 26.6895C127.515 27.2145 127.074 27.6555 126.549 27.9758C126.022 28.2982 125.397 28.4593 124.673 28.4593C123.8 28.4593 122.981 28.2944 122.218 27.9638C121.465 27.6399 120.78 27.1754 120.2 26.595C119.626 26.0127 119.166 25.3281 118.843 24.5765C118.52 23.8136 118.359 22.9953 118.359 22.1221C118.359 21.2804 118.513 20.4896 118.819 19.7501C119.439 18.2851 120.602 17.1175 122.065 16.4927C122.796 16.1783 123.583 16.0209 124.425 16.0209C125.204 16.0209 125.9 16.1941 126.514 16.5402C127.136 16.8866 127.663 17.3272 128.095 17.8619L127.966 16.3511ZM124.602 25.6863C125.216 25.6863 125.759 25.5326 126.231 25.2261C126.703 24.9192 127.073 24.5061 127.34 23.9868C127.607 23.4596 127.741 22.8816 127.741 22.252C127.741 21.6148 127.607 21.0364 127.34 20.5171C127.073 19.9899 126.699 19.5731 126.219 19.2662C125.747 18.9593 125.208 18.806 124.602 18.806C123.996 18.806 123.442 18.9634 122.938 19.2782C122.443 19.5844 122.033 20.0105 121.746 20.5171C121.455 21.0368 121.31 21.6148 121.31 22.252C121.31 22.8891 121.459 23.4675 121.758 23.9868C122.045 24.4934 122.455 24.9195 122.95 25.2257C123.447 25.5308 124.019 25.6904 124.602 25.6863ZM135.649 28.1528V16.3511H138.529V17.4018C138.936 16.9731 139.426 16.6318 139.969 16.3986C140.528 16.1467 141.129 16.0209 141.774 16.0209C142.593 16.0209 143.344 16.2137 144.028 16.5993C144.721 16.9845 145.272 17.5001 145.681 18.1451C146.098 17.5001 146.648 16.9845 147.333 16.5993C148.017 16.2137 148.769 16.0209 149.587 16.0209C150.452 16.0209 151.235 16.2333 151.935 16.658C152.634 17.0656 153.216 17.647 153.623 18.3458C154.048 19.0462 154.26 19.8288 154.26 20.6941V28.1528H151.381V21.4612C151.385 21.0205 151.267 20.5873 151.039 20.2102C150.824 19.831 150.515 19.5138 150.142 19.2899C149.772 19.0538 149.355 18.9359 148.891 18.9359C148.426 18.9359 148.005 19.05 147.628 19.2782C147.259 19.4977 146.951 19.8059 146.731 20.1748C146.503 20.5525 146.389 20.9814 146.389 21.4612V28.1528H143.509V21.4612C143.509 20.9814 143.399 20.5525 143.179 20.1748C142.964 19.8024 142.654 19.4932 142.282 19.2782C141.904 19.05 141.483 18.9355 141.019 18.9355C140.577 18.9315 140.143 19.0543 139.768 19.2895C139.393 19.5152 139.08 19.8319 138.86 20.2102C138.639 20.5879 138.529 21.0048 138.529 21.4612V28.1528H135.649ZM164.584 16.3511H167.464V28.1528H164.584L164.455 26.6895C164.134 27.2144 163.693 27.6553 163.168 27.9758C162.641 28.2982 162.016 28.4593 161.292 28.4593C160.419 28.4593 159.6 28.2944 158.837 27.9638C158.083 27.6399 157.399 27.1754 156.819 26.595C156.245 26.0126 155.784 25.3281 155.462 24.5765C155.139 23.8136 154.978 22.9953 154.978 22.1221C154.978 21.2804 155.132 20.4896 155.438 19.7501C156.058 18.2851 157.221 17.1175 158.684 16.4927C159.415 16.1783 160.202 16.0209 161.044 16.0209C161.823 16.0209 162.519 16.1941 163.133 16.5402C163.754 16.8866 164.281 17.3272 164.714 17.8619L164.584 16.3511ZM161.221 25.6863C161.835 25.6863 162.378 25.5326 162.849 25.2261C163.322 24.9192 163.691 24.5061 163.959 23.9868C164.226 23.4596 164.36 22.8816 164.36 22.252C164.36 21.6148 164.226 21.0364 163.959 20.5171C163.691 19.9899 163.318 19.5731 162.838 19.2662C162.366 18.9593 161.827 18.806 161.221 18.806C160.615 18.806 160.061 18.9634 159.557 19.2782C159.062 19.5844 158.652 20.0105 158.365 20.5171C158.074 21.0368 157.928 21.6148 157.928 22.252C157.928 22.8891 158.078 23.4675 158.377 23.9868C158.664 24.4934 159.074 24.9195 159.569 25.2257C160.066 25.5308 160.638 25.6904 161.221 25.6863ZM174.07 28.4593C172.984 28.4593 171.992 28.1803 171.095 27.6219C170.206 27.063 169.495 26.3155 168.96 25.3794C168.432 24.4353 168.169 23.3926 168.169 22.252C168.169 21.3866 168.322 20.58 168.629 19.8325C168.936 19.0775 169.357 18.4166 169.892 17.8499C170.427 17.2815 171.068 16.8244 171.78 16.5048C172.496 16.1821 173.259 16.0209 174.07 16.0209C175.155 16.0209 176.143 16.3003 177.032 16.8588C177.929 17.4172 178.641 18.1688 179.168 19.1129C179.703 20.057 179.97 21.1034 179.97 22.252C179.97 23.1094 179.817 23.9123 179.51 24.6594C179.212 25.3935 178.78 26.0658 178.236 26.642C177.704 27.206 177.066 27.6593 176.359 27.9758C175.651 28.2982 174.888 28.4593 174.07 28.4593ZM174.07 25.5801C174.644 25.5801 175.159 25.4265 175.615 25.1196C176.072 24.8131 176.441 24.3947 176.689 23.9044C176.957 23.4005 177.091 22.85 177.091 22.252C177.091 21.6382 176.953 21.0797 176.678 20.5762C176.41 20.0649 176.044 19.6597 175.58 19.3607C175.135 19.0574 174.608 18.8968 174.07 18.9005C173.503 18.9005 172.992 19.0538 172.535 19.3607C172.079 19.6676 171.717 20.0765 171.449 20.5883C171.182 21.0993 171.048 21.654 171.048 22.252C171.048 22.8733 171.186 23.4359 171.462 23.9398C171.737 24.4432 172.103 24.8443 172.559 25.1433C173.01 25.4307 173.535 25.5823 174.07 25.5801ZM40.6042 24.6006L43.2002 26.0049C42.6598 26.7423 41.9626 27.3509 41.1589 27.7868C40.3406 28.2353 39.4473 28.4593 38.4799 28.4593C37.3939 28.4593 36.4028 28.1803 35.5058 27.6219C34.6171 27.063 33.9046 26.3155 33.3699 25.3794C32.8427 24.4353 32.5791 23.3926 32.5791 22.252C32.5791 21.3866 32.7324 20.58 33.0393 19.8325C33.3462 19.0775 33.7672 18.4166 34.3019 17.8499C34.8366 17.2815 35.4784 16.8243 36.1904 16.5048C36.9059 16.1821 37.6696 16.0209 38.4799 16.0209C39.4473 16.0209 40.3406 16.245 41.1589 16.6934C41.9671 17.1332 42.6651 17.7506 43.2002 18.4991L40.6042 19.8916C40.3335 19.5806 39.9994 19.3311 39.6243 19.16C39.2668 18.9896 38.8759 18.9008 38.4799 18.9001C37.9132 18.9001 37.4018 19.0579 36.9454 19.3724C36.4894 19.6793 36.1275 20.0882 35.8598 20.6C35.5924 21.1034 35.4587 21.6544 35.4587 22.252C35.4587 22.8421 35.5924 23.393 35.8598 23.9044C36.1271 24.4078 36.4894 24.813 36.9454 25.1196C37.4018 25.4265 37.9132 25.5801 38.4799 25.5801C38.8889 25.5801 39.2783 25.4935 39.6481 25.3203C40.0105 25.1448 40.3353 24.9004 40.6042 24.6006ZM55.0524 20.6941V28.1528H52.1727V21.4495C52.1727 20.9852 52.0586 20.5646 51.8304 20.1869C51.6091 19.8082 51.2916 19.4947 50.9101 19.2782C50.5324 19.05 50.1114 18.9355 49.6471 18.9355C49.1832 18.9355 48.758 19.05 48.3728 19.2782C47.9962 19.4972 47.6831 19.8103 47.4641 20.1869C47.2438 20.5646 47.1335 20.9852 47.1335 21.4495V28.1524H44.2539L44.2422 10.4507H47.1218L47.1335 17.4018C47.5403 16.9731 48.0301 16.6318 48.5731 16.3986C49.1319 16.1467 49.7337 16.0209 50.3788 16.0209C51.2366 16.0209 52.0195 16.2333 52.7274 16.658C53.4261 17.0657 54.0074 17.6471 54.4148 18.3458C54.84 19.0462 55.0524 19.8288 55.0524 20.6941ZM65.3632 16.3511H68.2428V28.1528H65.3632L65.2333 26.6895C64.913 27.2145 64.472 27.6555 63.9469 27.9758C63.4197 28.2982 62.7942 28.4593 62.0705 28.4593C61.1972 28.4593 60.3789 28.2944 59.616 27.9638C58.8624 27.6399 58.1775 27.1754 57.598 26.595C57.0236 26.0127 56.5633 25.3281 56.2408 24.5765C55.9181 23.8136 55.7569 22.9953 55.7569 22.1221C55.7569 21.2804 55.9102 20.4896 56.2171 19.7501C56.8364 18.2851 57.9997 17.1175 59.4624 16.4927C60.194 16.1783 60.9811 16.0209 61.8227 16.0209C62.6018 16.0209 63.2981 16.1941 63.9115 16.5402C64.5332 16.8866 65.0604 17.3272 65.4931 17.8619L65.3632 16.3511ZM61.9997 25.6863C62.6135 25.6863 63.1565 25.5326 63.6283 25.2261C64.1006 24.9192 64.4704 24.5061 64.7377 23.9868C65.0051 23.4596 65.1391 22.8816 65.1391 22.252C65.1391 21.6148 65.0051 21.0364 64.7377 20.5171C64.4704 19.9899 64.0964 19.5731 63.6167 19.2662C63.1445 18.9593 62.6056 18.806 61.9997 18.806C61.3942 18.806 60.8395 18.9634 60.3356 19.2782C59.8406 19.5845 59.4307 20.0106 59.1438 20.5171C58.8527 21.0368 58.7073 21.6148 58.7073 22.252C58.7073 22.8891 58.8568 23.4675 59.1558 23.9868C59.4426 24.4935 59.8525 24.9196 60.3477 25.2257C60.8444 25.5308 61.4168 25.6904 61.9997 25.6863ZM76.6381 28.1528H72.9206L68.625 16.3398H71.6933L74.7853 24.8364L77.8657 16.3395H80.9339L76.6381 28.1528ZM86.7022 28.4593C85.6166 28.4593 84.6255 28.1803 83.7285 27.6219C82.8394 27.063 82.1273 26.3114 81.5922 25.3677C81.0654 24.4233 80.8018 23.3809 80.8018 22.2403C80.8018 21.3825 80.955 20.58 81.2619 19.8325C81.5688 19.0775 81.9898 18.4166 82.5246 17.8499C83.0593 17.2815 83.7011 16.8243 84.4131 16.5048C85.1289 16.1821 85.8919 16.0209 86.7022 16.0209C87.6229 16.0209 88.4646 16.2175 89.2279 16.611C89.991 16.99 90.6601 17.5341 91.1868 18.2039C91.7219 18.8806 92.1113 19.6518 92.3553 20.5171C92.5993 21.3825 92.6543 22.2874 92.5206 23.2314H83.8938C83.9981 23.6594 84.1822 24.0639 84.4364 24.4237C84.689 24.7704 85.0156 25.0567 85.3925 25.2615C85.7778 25.466 86.2146 25.5722 86.7022 25.5801C87.2061 25.5876 87.6621 25.4698 88.0714 25.2261C88.4909 24.9718 88.8462 24.6244 89.11 24.2109L92.0484 24.8955C91.5686 25.942 90.8524 26.7994 89.9004 27.4682C88.9485 28.1291 87.8824 28.4593 86.7022 28.4593ZM83.7993 21.0718H89.6056C89.5232 20.6093 89.3332 20.1727 89.0509 19.7971C88.7819 19.4173 88.4309 19.1028 88.024 18.8768C87.6205 18.65 87.165 18.5321 86.7022 18.5345C86.2431 18.5311 85.7913 18.6492 85.3925 18.8768C84.9874 19.1003 84.6368 19.4106 84.3656 19.7855C84.0876 20.1691 83.8945 20.6076 83.7993 21.0718ZM97.306 28.3652C96.6979 28.3269 96.0981 28.2037 95.5241 27.9992C94.9765 27.7974 94.4661 27.5063 94.0137 27.1376C93.5818 26.7869 93.2348 26.3432 92.9985 25.8396L95.4296 24.801C95.5241 24.9584 95.6774 25.1275 95.8901 25.3086C96.1025 25.4818 96.3541 25.6272 96.6452 25.7454C96.9442 25.8633 97.2706 25.9224 97.6246 25.9224C97.9236 25.9224 98.2068 25.8829 98.4745 25.8042C98.7498 25.7175 98.9701 25.588 99.1354 25.4148C99.3083 25.2416 99.3949 25.0175 99.3949 24.7422C99.3949 24.4511 99.2928 24.2267 99.088 24.0693C98.8914 23.9044 98.6398 23.7824 98.3329 23.7037C98.0433 23.6196 97.7522 23.5409 97.4597 23.4675C96.7364 23.3262 96.0343 23.0921 95.3709 22.7713C94.7333 22.4565 94.2182 22.0513 93.8247 21.5557C93.4391 21.0522 93.2462 20.4463 93.2462 19.7384C93.2462 18.9593 93.4511 18.2867 93.8601 17.72C94.2769 17.154 94.8162 16.7172 95.477 16.4103C96.1458 16.1034 96.8655 15.9501 97.6367 15.9501C98.5728 15.9501 99.4303 16.1467 100.209 16.5402C100.996 16.9258 101.618 17.4726 102.074 18.1805L99.7963 19.526C99.6763 19.3259 99.5202 19.1497 99.3361 19.0063C99.1343 18.8382 98.9072 18.7028 98.6632 18.6053C98.4131 18.4956 98.1454 18.4317 97.8728 18.4166C97.5184 18.4008 97.1961 18.4324 96.905 18.5108C96.6139 18.5898 96.3778 18.7235 96.1967 18.9122C96.0238 19.1012 95.9372 19.3528 95.9372 19.6676C95.9372 19.9666 96.0551 20.191 96.2912 20.3401C96.5273 20.4817 96.8105 20.5921 97.1407 20.6708C97.4793 20.7495 97.8016 20.8357 98.1085 20.9306C98.7816 21.1502 99.4334 21.4306 100.056 21.7681C100.67 22.0987 101.161 22.5039 101.531 22.9837C101.901 23.4638 102.078 24.038 102.062 24.7068C102.062 25.4698 101.834 26.1385 101.378 26.7128C100.921 27.2796 100.331 27.7122 99.6073 28.0112C98.8914 28.3102 98.1243 28.4281 97.306 28.3652Z" fill="#2A2A2F"/>
<path d="M16.1194 17.9926C15.762 18.1093 15.3813 18.0792 15.0477 17.909C14.8272 17.7971 14.6403 17.6288 14.506 17.4213C14.3718 17.2137 14.2949 16.9742 14.2832 16.7273C14.2688 16.9989 14.3333 17.2689 14.4689 17.5047C14.6046 17.7404 14.8056 17.9319 15.0477 18.0558C15.2118 18.1402 15.3911 18.191 15.5751 18.2053C15.7591 18.2197 15.9441 18.1973 16.1194 18.1394C16.295 18.0828 16.4577 17.992 16.598 17.8722C16.7384 17.7525 16.8537 17.6061 16.9373 17.4416C17.0469 17.2223 17.0987 16.9786 17.0879 16.7337C17.0785 16.9294 17.0272 17.1207 16.9373 17.2948C16.8537 17.4593 16.7384 17.6056 16.5981 17.7254C16.4577 17.8451 16.295 17.9359 16.1194 17.9926Z" fill="#FF0D36"/>
<path d="M21.7487 6.32007H4.61109C2.06322 6.32007 0 8.38367 0 10.9312V28.0688C0 30.6137 2.0636 32.6799 4.61109 32.6799H21.7487C24.2936 32.6799 26.3598 30.6163 26.3598 28.0688V10.9312C26.3598 8.38668 24.2962 6.32007 21.7487 6.32007ZM14.6775 22.8002L12.9547 26.6601C12.9434 26.687 12.9234 26.7092 12.8979 26.7233C12.5804 26.9338 12.1636 26.9971 11.7456 26.9071C11.6134 26.879 11.4847 26.8364 11.3618 26.7802C10.8309 26.5399 10.4573 26.0824 10.3937 25.5884C10.3897 25.5598 10.3944 25.5306 10.4072 25.5048L12.083 21.7553C12.1067 21.7052 12.1564 21.672 12.22 21.6619C12.286 21.6525 12.353 21.6693 12.4068 21.7086C12.6674 21.8889 12.9212 22.0324 13.1784 22.1529C13.2018 22.1627 13.2217 22.1695 13.2451 22.1759C13.2786 22.1861 13.3117 22.1996 13.3452 22.2128C13.422 22.2429 13.4955 22.2693 13.5723 22.293L13.619 22.3096H13.6292V22.313C13.9042 22.407 14.1868 22.4774 14.4738 22.5235C14.5405 22.5265 14.6105 22.5732 14.6508 22.63C14.6907 22.6869 14.7009 22.7505 14.6741 22.8036L14.6775 22.8002ZM19.3884 18.6836C18.3367 20.7506 15.8057 21.5749 13.7391 20.5235C13.1954 20.2445 12.72 19.8488 12.3469 19.3648L7.03431 21.091C7.00404 21.1004 6.9718 21.1016 6.94092 21.0944C6.90399 21.0868 6.87024 21.0681 6.84414 21.0409C6.82074 21.0158 6.80488 20.9846 6.79835 20.9509C6.79183 20.9172 6.79491 20.8824 6.80724 20.8504L8.01264 17.8992C8.02251 17.8744 8.03787 17.8523 8.05758 17.8343C8.07728 17.8164 8.1008 17.8032 8.12636 17.7956L11.4582 16.7138C11.4684 16.0924 11.5987 15.4684 11.8988 14.8772C12.951 12.8106 15.4815 11.9859 17.5485 13.0377C19.6151 14.0894 20.4398 16.6204 19.388 18.687L19.3884 18.6836Z" fill="#FF0D36"/>
<path d="M16.3235 15.5486C16.2133 15.4932 16.0967 15.4517 15.9763 15.4251C15.7354 15.3749 15.4856 15.3887 15.2517 15.465C14.9817 15.5519 14.7445 15.7189 14.5715 15.9437C14.3985 16.1685 14.298 16.4406 14.2832 16.7239C14.29 16.8474 14.3099 16.9675 14.3502 17.0877C14.467 17.445 14.714 17.7354 15.048 17.9056C15.2122 17.9899 15.3915 18.0407 15.5755 18.0551C15.7595 18.0694 15.9445 18.047 16.1197 17.9892C16.3897 17.9022 16.6268 17.7352 16.7997 17.5104C16.9726 17.2856 17.0731 17.0135 17.0879 16.7303C17.0762 16.4829 16.9994 16.243 16.8651 16.0349C16.7309 15.8268 16.544 15.6579 16.3235 15.5452V15.5486Z" fill="#FF0D36"/>
</svg>
