<svg width="2648" height="500" viewBox="0 0 2648 500" fill="none" xmlns="http://www.w3.org/2000/svg">
<path fill-rule="evenodd" clip-rule="evenodd" d="M102.118 1.43741C92.7494 3.46941 86.4814 5.68841 77.5054 10.1494C45.7524 25.9294 25.2294 57.4874 23.3684 93.3924C21.7134 125.309 35.7784 157.676 59.6454 176.876C67.2184 182.967 84.6714 192.293 90.7554 193.498L94.0054 194.142V225.294C94.0054 252.477 94.2134 256.744 95.6364 258.775C97.5664 261.531 102.761 263.892 106.896 263.892C109.678 263.892 134.272 254.874 141.052 251.368C146.483 248.559 147.005 245.689 147.005 218.607V194.257L152.755 192.452C172.007 186.407 191.306 171.729 203.224 154.067C209.344 144.999 213.143 136.805 216.621 125.176C220.341 112.739 221.045 92.4964 218.23 78.8874C214.066 58.7484 206.178 44.1114 191.505 29.2934C176.412 14.0524 161.135 5.68541 140.686 1.46141C131.305 -0.476592 110.997 -0.489592 102.118 1.43741ZM105.898 53.2664C91.3314 58.4094 80.2504 69.5584 74.8844 84.4734C71.8874 92.8034 71.8874 107.981 74.8844 116.311C79.5324 129.23 89.0244 139.612 101.739 145.684C109.424 149.353 109.637 149.392 122.08 149.392H134.656L143.382 145.068C157.441 138.101 166.669 126.957 170.474 112.35C177.037 87.1524 161.383 59.9114 136.073 52.4854C127.74 50.0414 114.031 50.3954 105.898 53.2664ZM73.4104 290.308C40.3584 302.597 11.7344 313.401 9.80338 314.318C7.87138 315.234 4.98938 317.342 3.39838 319.001C0.591381 321.928 0.495381 322.369 0.175381 333.795C-0.189619 346.799 0.97038 351.512 5.21738 354.295C6.52538 355.153 14.9874 359.065 24.0214 362.99C46.9094 372.935 43.1414 373.428 95.9534 353.571C118.749 345 138.522 337.15 139.891 336.128C141.261 335.105 143.309 333.027 144.443 331.509C146.372 328.928 146.526 327.161 146.83 304.071C147.04 288.105 146.766 278.087 146.055 275.696C144.7 271.134 140.747 267.88 136.62 267.928C134.907 267.948 106.462 278.019 73.4104 290.308ZM69.5054 376.888C14.8054 397.317 5.10538 401.236 2.75538 403.857C0.0153809 406.912 0.00538076 406.978 0.00538076 421.831C0.00538076 441.479 -0.971621 440.314 23.4044 449.746C33.5614 453.676 43.2054 456.892 44.8354 456.892C47.5764 456.892 134.974 425.511 141.201 422.291C146.667 419.464 147.005 417.491 147.005 388.392C147.005 366.572 146.732 361.266 145.488 358.859C143.804 355.602 139.33 352.867 135.805 352.939C134.54 352.964 104.705 363.741 69.5054 376.888ZM134.005 439.054C132.63 439.624 119.805 444.359 105.505 449.576C89.1544 455.542 78.6134 459.932 77.1014 461.404C73.8964 464.525 73.9874 469.62 77.2994 472.468C80.4094 475.144 138.094 499.897 141.172 499.877C147.215 499.837 147.904 496.512 147.961 467.092C148.014 440.1 147.309 437.762 139.173 437.955C137.706 437.99 135.38 438.485 134.005 439.054Z" fill="#F05023"/>
<path fill-rule="evenodd" clip-rule="evenodd" d="M1642.01 280.892V456.892H1664.01H1686.01V280.892V104.892H1664.01H1642.01V280.892ZM2394.01 280.892V456.892H2416.01H2438.01V437.705V418.517L2445.01 426.121C2467.63 450.667 2498.14 463.08 2532.01 461.513C2552.43 460.568 2568.61 455.935 2585.51 446.197C2595.67 440.338 2600.8 436.453 2609.4 428.094C2640.31 398.039 2653.55 351.958 2645.38 302.892C2642.31 284.462 2635.74 268.096 2624.91 251.911C2593.09 204.337 2528.91 186.344 2479.51 211.146C2466.74 217.556 2460.22 222.421 2448.76 234.121L2438.01 245.087V174.99V104.892H2416.01H2394.01V280.892ZM306.006 135.892V159.892H330.506H355.006V135.892V111.892H330.506H306.006V135.892ZM518.506 200.929C497.932 204.143 480.791 213.545 466.021 229.718L459.013 237.392L459.009 221.142L459.006 204.892H437.006H415.006V330.892V456.892H437.006H459.006L459.026 382.642C459.038 338.737 459.453 305.531 460.043 301.392C462.504 284.12 469.082 270.758 480.978 258.867C494.756 245.095 507.429 240.231 527.006 241.202C543.476 242.018 553.745 246.342 564.006 256.78C571.336 264.236 575.835 272.432 579.252 284.55C581.438 292.307 581.466 293.281 581.773 374.642L582.083 456.892H604.011H625.939L626.226 375.642L626.513 294.392L628.858 287.392C638.728 257.933 660.986 240.848 689.416 240.909C706.259 240.946 718.232 245.367 729.003 255.528C740.634 266.5 746.262 280.378 748.009 302.392C748.532 308.992 748.971 346.455 748.983 385.642L749.006 456.892H771.08H793.154L792.749 371.642C792.394 296.953 792.133 285.226 790.644 276.976C784.902 245.169 768.492 221.683 743.506 209.509C718.531 197.34 683.534 196.704 656.57 207.93C642.459 213.804 625.724 227.103 616.793 239.539C615.074 241.933 613.336 243.892 612.932 243.892C612.527 243.892 611.049 241.935 609.647 239.543C606.005 233.328 593.76 220.531 586.495 215.347C572.402 205.291 558.527 201.013 538.006 200.397C530.581 200.174 521.806 200.414 518.506 200.929ZM947.21 200.994C904.739 206.735 868.381 232.172 849.265 269.517C838.783 289.997 834.635 307.88 834.684 332.392C834.732 356.426 838.522 372.22 849.31 393.335C867.083 428.123 902.198 453.791 940.932 460.306C952.911 462.321 975.579 462.359 987.758 460.383C1042.82 451.454 1085.68 407.707 1094.53 351.392C1096.56 338.501 1096.1 314.974 1093.59 303.392C1084.87 263.167 1060.64 231.713 1024.49 213.662C1014.18 208.513 1002.74 204.539 991.981 202.371C982.603 200.48 956.867 199.689 947.21 200.994ZM1460.75 201.449C1448.51 203.354 1439.98 206.076 1428.45 211.764C1408.75 221.477 1394.01 234.418 1382.07 252.506C1365.69 277.303 1358.09 305.489 1359.31 336.892C1360.19 359.679 1364.5 376.255 1374.63 395.892C1387.06 419.975 1403.97 436.751 1428.01 448.866C1446.67 458.272 1462.91 461.894 1486.39 461.888C1517.18 461.88 1536.15 456.426 1559.31 440.927C1569.31 434.229 1585.05 420.444 1588.96 414.951L1590.94 412.17L1576.86 399.539L1562.77 386.908L1554.77 394.433C1544.72 403.882 1531 412.976 1520.93 416.86C1496.17 426.409 1465.6 424.377 1444.32 411.769C1437.68 407.829 1425.42 396.587 1420.58 389.987C1413.51 380.363 1406.92 364.233 1405.41 352.903L1404.75 347.892H1501H1597.26L1596.7 328.142C1595.91 299.803 1592.17 283.302 1581.83 262.443C1575.48 249.627 1569.5 241.223 1560.08 231.865C1534.78 206.727 1498.4 195.588 1460.75 201.449ZM2218.35 200.947C2185.43 205.239 2154.56 224.876 2136.25 253.176C2131.01 261.278 2124.04 275.757 2121.01 284.808C2115.02 302.769 2112.49 329.769 2114.96 349.475C2122.2 407.196 2162.44 450.912 2216.96 460.277C2227.84 462.147 2250.96 462.424 2262.68 460.826C2281.34 458.284 2297.33 452.182 2313.46 441.454C2323.11 435.033 2337.02 423.059 2342.21 416.705L2345.91 412.174L2331.74 399.579L2317.58 386.984L2311.54 392.73C2290.73 412.537 2271.88 421.301 2247.31 422.595C2215.62 424.263 2190.46 412.053 2173.1 386.579C2166.82 377.363 2160.01 358.69 2160.01 350.704V347.892H2255.49H2350.97L2351.62 345.279C2352.92 340.129 2351.25 310.704 2349.04 299.522C2342.66 267.316 2328.19 241.641 2306.67 224.331C2296.92 216.488 2277.81 206.681 2267.01 203.979C2251.96 200.217 2233.02 199.036 2218.35 200.947ZM1866.63 296.642C1849.65 347.655 1835.47 389.711 1835.12 390.101C1834.77 390.491 1820.79 348.978 1804.06 297.851L1773.63 204.892H1750.32C1737.49 204.892 1726.99 205.23 1726.98 205.642C1726.97 206.054 1746.65 263.206 1770.73 332.646L1814.51 458.899L1833.47 458.646L1852.44 458.392L1883.6 367.602C1900.73 317.667 1914.99 276.579 1915.27 276.294C1915.55 276.009 1917.13 279.74 1918.78 284.584C1920.43 289.428 1932.68 325.342 1946.01 364.392C1959.34 403.442 1972.03 440.68 1974.21 447.142L1978.18 458.892L1996.84 458.877L2015.51 458.863L2059.51 332.796C2083.71 263.459 2103.66 206.307 2103.85 205.792C2104.05 205.221 2095.08 204.96 2080.91 205.123L2057.63 205.392L2027.39 297.734C2010.76 348.522 1996.96 390.275 1996.71 390.517C1996.33 390.903 1962.03 289.856 1940.91 226.142L1933.54 203.892H1915.52H1897.5L1866.63 296.642ZM309.006 330.892V456.892H331.006H353.006V330.892V204.892H331.006H309.006V330.892ZM1100 205.624C1100 206.046 1124.42 263.201 1154.25 332.635L1208.51 458.878L1227.11 458.885L1245.72 458.892L1299.8 333.642C1329.54 264.754 1354.18 207.605 1354.55 206.642C1355.18 205.005 1353.67 204.892 1331.35 204.892H1307.47L1268.08 301.642C1246.41 354.854 1228.38 398.748 1228 399.182C1227.63 399.617 1209.57 356.192 1187.86 302.682L1148.4 205.392L1124.2 205.124C1110.89 204.977 1100 205.202 1100 205.624ZM1471.01 238.953C1446.04 241.781 1422.79 260.746 1411.9 287.153C1408.8 294.672 1405.01 308.236 1405.01 311.809V313.892H1477.95C1518.06 313.892 1551.11 313.54 1551.37 313.109C1552.08 311.961 1549.35 298.471 1546.89 290.921C1535.24 255.251 1505.7 235.023 1471.01 238.953ZM2225.42 238.99C2217.04 239.955 2207.24 243.335 2199.26 248.015C2190.77 252.995 2177.37 266.927 2172.09 276.269C2167.06 285.157 2161.21 301.363 2160.32 308.851L2159.73 313.905L2233.12 313.649L2306.51 313.392L2306.16 309.892C2305.41 302.326 2300.7 286.949 2296.52 278.392C2282.8 250.308 2256.01 235.466 2225.42 238.99ZM949.837 240.853C923.181 245.707 901.986 261.759 889.705 286.392C873.926 318.043 876.353 355.922 896.016 384.892C901.268 392.631 914.398 404.847 922.874 409.883C954.274 428.537 995.558 424.379 1022.29 399.869C1030.69 392.173 1036.83 383.667 1042.06 372.519C1048.97 357.782 1050.35 350.912 1050.36 331.392C1050.37 315.726 1050.16 313.686 1047.64 305.392C1039.52 278.634 1024.42 260.095 1001.33 248.532C989.889 242.806 981.295 240.759 967.006 240.355C960.131 240.161 952.405 240.385 949.837 240.853ZM2505.51 242.296C2470.16 250.385 2443.72 278.551 2437.96 314.272C2436.01 326.341 2437.18 347.427 2440.4 358.189C2451.22 394.419 2481.48 418.91 2517.56 420.627C2559.11 422.605 2590.9 396.928 2600.7 353.485C2602.7 344.627 2602.96 319.907 2601.15 311.392C2596.64 290.139 2588.49 275.199 2573.97 261.545C2565.11 253.201 2553.28 246.587 2541.51 243.384C2533.27 241.145 2513.19 240.538 2505.51 242.296Z" fill="black" fill-opacity="0.946"/>
</svg>
