<svg width="317" height="74" viewBox="0 0 317 74" fill="none" xmlns="http://www.w3.org/2000/svg">
<path fill-rule="evenodd" clip-rule="evenodd" d="M14.2113 1.09061C9.25925 3.06661 4.89425 7.36262 2.47925 12.6366C-4.35175 27.5596 3.13325 45.5756 22.4623 60.7306C31.0383 67.4546 41.7233 73.9776 44.1633 73.9776C47.4323 73.9776 64.5903 63.1456 71.8553 56.4956C79.3303 49.6536 79.6272 47.6366 72.9372 49.1516C67.8722 50.2986 61.2143 49.4836 55.6113 47.0306C44.0443 41.9676 37.4873 26.7016 41.3463 13.8206C42.4463 10.1496 42.3483 9.76062 39.5963 6.86362C34.9253 1.94662 30.1073 -0.0313851 22.9713 0.0406149C19.5113 0.0756149 15.5693 0.547614 14.2113 1.09061ZM56.1373 3.22762C44.3363 10.2576 41.6573 25.8206 50.4193 36.4506C59.0483 46.9186 75.9293 47.3386 85.3543 37.3196C94.9543 27.1136 92.0573 9.56561 79.6473 2.75061C75.6893 0.577614 73.3533 0.019614 68.1373 0.000613995C62.5163 -0.019386 60.8233 0.436615 56.1373 3.22762ZM104.181 37.4316V60.9776H121.731H139.281L138.981 55.2276L138.681 49.4776L128.454 49.1926L118.228 48.9086L117.954 31.6926L117.681 14.4776L110.931 14.1816L104.181 13.8866V37.4316ZM159.282 22.0636C153.649 23.1656 149.035 26.3486 145.769 31.3866C143.7 34.5776 143.185 36.5906 143.203 41.4276C143.254 55.4526 151.262 62.7146 165.663 61.7976C177.511 61.0436 184.431 53.5456 184.431 41.4646C184.431 34.7286 182.905 30.9396 178.52 26.7916C173.808 22.3326 166.758 20.5996 159.282 22.0636ZM212.456 21.9486C210.682 22.3696 208.111 23.4486 206.741 24.3466C203.539 26.4446 203.181 26.4026 203.181 23.9276C203.181 22.0636 202.659 21.9046 197.431 22.1776L191.681 22.4776L191.414 48.2276L191.147 73.9776H197.664H204.181V66.5286V59.0796L207.649 60.5286C215.927 63.9876 225.416 61.3086 230.131 54.1816C232.784 50.1706 233.985 41.0786 232.74 34.4386C231.764 29.2396 226.135 23.4556 220.726 22.0936C218.289 21.4796 216.157 21.0236 215.988 21.0796C215.819 21.1366 214.23 21.5276 212.456 21.9486ZM255.181 21.9166C249.608 23.0366 245.768 25.5226 242.641 30.0356C237.198 37.8896 238.29 51.2476 244.861 57.1896C254.568 65.9666 275.665 61.6116 277.374 50.4776C277.639 48.7506 277.037 48.4366 272.963 48.1746C269.349 47.9416 267.55 48.3836 265.277 50.0646C260.276 53.7616 251.181 51.3246 251.181 46.2866C251.181 45.2716 254.248 44.9776 264.82 44.9776H278.459L277.909 38.9106C276.786 26.5326 267.344 19.4726 255.181 21.9166ZM295.181 21.9106C287.977 23.3446 284.181 27.2986 284.181 33.3656C284.181 37.2626 287.893 42.4456 291.475 43.5516C300.264 46.2646 304.181 48.2466 304.181 49.9816C304.181 53.7286 297.158 53.6716 295.145 49.9096C294.336 48.3986 293.029 47.9776 289.146 47.9776C284.348 47.9776 284.181 48.0736 284.181 50.8426C284.181 57.1416 291.13 61.9776 300.181 61.9776C309.801 61.9776 316.181 57.1696 316.181 49.9196C316.181 45.6846 312.624 40.5576 308.887 39.4036C299.95 36.6446 296.181 34.7176 296.181 32.9056C296.181 30.0346 302.78 30.1396 303.696 33.0246C304.266 34.8216 305.04 35.0356 310.013 34.7746C315.375 34.4936 315.663 34.3466 315.338 32.0506C314.309 24.7646 304.82 19.9906 295.181 21.9106ZM253.816 33.0506C252.367 34.1896 251.181 35.5396 251.181 36.0506C251.181 36.5606 254.556 36.9776 258.681 36.9776C266.795 36.9776 268.387 35.6366 263.958 32.5346C260.892 30.3866 256.947 30.5866 253.816 33.0506ZM206.77 35.0546C202.567 40.0486 203.674 48.5146 208.838 50.8676C214.554 53.4716 219.364 51.1326 220.951 44.9776C222.78 37.8826 219.221 31.9776 213.115 31.9776C210.148 31.9776 208.815 32.6246 206.77 35.0546ZM157.677 35.2276C154.975 37.5516 154.222 41.3796 155.607 45.7436C156.425 48.3216 160.935 50.9776 164.496 50.9776C167.695 50.9776 171.795 47.6516 172.613 44.3926C173.459 41.0216 171.549 35.2446 169.167 33.9696C165.909 32.2266 160.474 32.8216 157.677 35.2276Z" fill="#EB194B"/>
</svg>
