<svg width="692" height="168" viewBox="0 0 692 168" fill="none" xmlns="http://www.w3.org/2000/svg">
<path fill-rule="evenodd" clip-rule="evenodd" d="M658.264 0.70047L657.375 1.58932V50.3727C657.375 93.1802 657.293 99.5585 656.702 102.439C655.975 105.985 654.066 110.44 652.772 111.611C651.994 112.315 651.894 112.17 649.818 107.327C648.636 104.57 645.138 96.469 642.044 89.3246C638.951 82.1801 635.023 73.0663 633.316 69.0718C631.61 65.0777 629.542 60.478 628.721 58.8502C625.489 52.4413 621.501 48.3028 616.063 45.7142C613.593 44.5383 612.882 44.3982 609.462 44.4105C606.287 44.4224 605.153 44.6222 602.86 45.5741C601.338 46.2061 600.041 46.5817 599.979 46.4092C599.248 44.3692 595.857 39.2861 593.721 37.0275C590.477 33.5982 587.423 31.6791 583.696 30.7276C573.807 28.2033 564.431 35.0629 560.643 47.5933C559.718 50.6512 559.669 51.6035 559.43 71.0109C559.292 82.1375 559.186 104.985 559.193 121.784C559.204 149.104 559.277 152.399 559.882 153.003C560.974 154.096 590.141 167.69 591.392 167.69C592.021 167.69 592.74 167.443 592.991 167.14C593.308 166.758 593.495 151.442 593.603 116.99C593.743 72.3589 593.831 67.0935 594.474 64.4218C595.315 60.9286 598.05 54.9362 598.546 55.5001C598.735 55.7151 600.248 59.0538 601.908 62.9188C611.062 84.2325 620.559 106.033 621.636 108.205C625.72 116.438 631.595 121.082 639.333 122.191C642.701 122.674 643.847 122.498 649.709 120.597C650.161 120.45 650.848 121.36 652.052 123.702C654.251 127.978 658.613 132.432 662.486 134.357C675.525 140.836 689.099 131.779 691.426 115.047C692.12 110.063 692.039 16.0218 691.341 15.1163C690.824 14.4459 661.923 0.516056 660.074 0.0462896C659.473 -0.106608 658.843 0.121248 658.264 0.70047ZM662.06 53.2794C662.06 85.0583 661.912 101.09 661.604 102.613C660.496 108.093 658.705 111.897 655.175 116.262L654.229 117.433L655.696 120.52C657.703 124.747 662.188 129.294 665.614 130.575C668.856 131.788 672.734 131.785 675.989 130.567C679.069 129.415 682.938 125.692 684.414 122.458C687.091 116.597 686.937 119.817 687.084 66.5389L687.217 17.9864L675.013 12.2368C668.301 9.0745 662.641 6.42328 662.435 6.34534C662.221 6.26399 662.06 26.3703 662.06 53.2794ZM575.812 35.5748C570.387 37.4509 566.537 43.0093 564.784 51.4975C564.212 54.2645 564.12 61.061 564.092 102.346C564.075 128.556 564.214 150.059 564.402 150.131C564.589 150.203 570.109 152.827 576.667 155.963L588.593 161.665L588.806 114.102C589.005 69.5484 589.069 66.3366 589.812 63.3447C590.77 59.4869 593.067 54.3365 594.786 52.19C595.479 51.325 596.046 50.3135 596.046 49.9417C596.046 48.8467 593.737 44.5911 591.601 41.7499C588.409 37.5037 583.474 34.7703 579.096 34.8235C578.463 34.8312 576.985 35.1693 575.812 35.5748ZM605.937 49.4676C604.935 49.7926 603.663 50.3548 603.111 50.7168L602.106 51.3752L610.814 71.5211C615.604 82.6013 620.681 94.3502 622.096 97.6296C625.989 106.649 627.9 110.087 630.424 112.611C633.705 115.891 636.338 117.109 640.669 117.347C645.085 117.591 648.219 116.634 647.877 115.147C647.553 113.738 625.299 62.5214 623.737 59.5917C619.6 51.8284 611.994 47.503 605.937 49.4676ZM171.422 49.6644C164.431 51.9464 162.031 59.6811 166.643 65.0687C169.665 68.599 174.126 69.4406 178.29 67.2655C185.04 63.7391 184.955 53.9941 178.143 50.5192C176.258 49.5571 173.014 49.1444 171.422 49.6644ZM468.699 49.6644C462.65 51.6389 459.866 57.443 462.346 62.9111C463.515 65.4878 464.281 66.2706 466.785 67.447C472.811 70.2771 479.378 66.7276 480.443 60.0653C480.998 56.5985 478.705 52.1947 475.493 50.5558C473.544 49.5613 470.313 49.1376 468.699 49.6644ZM312.226 52.5034C311.864 52.8655 311.384 53.8714 311.16 54.7394C310.936 55.6074 310.246 58.2676 309.627 60.6513C309.008 63.0351 308.563 65.5266 308.639 66.188L308.777 67.3907L314.902 67.5091C319.641 67.6011 321.237 67.4904 321.953 67.0215C322.788 66.4742 326.646 58.6734 327.983 54.8293C328.979 51.9638 328.674 51.8454 320.291 51.8454C314.179 51.8454 312.769 51.9604 312.226 52.5034ZM138.085 57.9929C134.623 59.2369 131.418 60.5917 130.962 61.004C130.226 61.6705 130.121 62.4409 130.017 67.9789L129.899 74.2051L127.77 74.3163C123.054 74.5629 122.872 74.8742 122.872 82.6856C122.872 87.7462 122.966 88.4766 123.739 89.46C124.479 90.4012 124.993 90.581 127.253 90.6887L129.899 90.8152L130.112 110.661C130.283 126.617 130.44 130.644 130.909 131.21C131.413 131.817 132.542 131.914 139.042 131.914C146.174 131.914 146.635 131.865 147.402 131.018C148.171 130.168 148.219 129.104 148.332 110.362L148.451 90.6023H153.092C157.599 90.6023 157.759 90.5699 158.616 89.48C159.412 88.4685 159.499 87.7811 159.499 82.5102C159.499 77.2392 159.412 76.5518 158.616 75.5403C157.759 74.4509 157.598 74.4181 153.105 74.4181H148.476L148.344 65.9435C148.226 58.3161 148.132 57.38 147.402 56.5738C146.954 56.0806 146.094 55.6904 145.485 55.7049C144.877 55.7198 141.547 56.7492 138.085 57.9929ZM504.69 71.4095C497.038 72.6613 491.644 76.123 488.898 81.5451C487.735 83.8407 487.655 84.3202 487.665 88.8987C487.68 95.3276 488.586 97.7902 492.302 101.487C495.733 104.901 498.355 106.315 505.729 108.729C512.544 110.96 513.847 111.831 513.847 114.154C513.847 116.584 511.441 117.86 506.863 117.859C503.765 117.859 499.98 116.254 496.799 113.591C495.687 112.66 494.37 111.897 493.873 111.897C492.764 111.897 486.261 117.984 485.53 119.706C484.684 121.701 485.257 123.003 488.304 126.009C493.416 131.052 499.273 133.171 508.136 133.185C516.163 133.197 522.263 131.043 526.76 126.606C530.865 122.556 532.772 116.571 531.851 110.624C530.845 104.124 527.385 99.7633 520.6 96.4447C516.86 94.6151 515.506 94.1359 509.549 92.5354C506.257 91.6504 504.82 90.4562 504.986 88.7428C505.173 86.8279 507.279 85.7977 510.478 86.0571C513.105 86.27 515.043 87.1112 517.163 88.9579C519.399 90.9055 520.207 90.6368 525.169 86.2922C527.609 84.1558 529.606 82.0979 529.606 81.7193C529.606 80.6413 524.104 75.6281 521.287 74.1391C519.889 73.4002 517.691 72.4854 516.403 72.1059C513.599 71.2801 507.645 70.9257 504.69 71.4095ZM28.8232 71.8657C24.3797 72.8048 19.884 75.8977 17.3068 79.7878L16.0095 81.7465L15.7348 80.531C14.4708 74.9428 13.7536 73.3836 12.1373 72.7141C11.3711 72.3968 9.25096 72.2635 6.42852 72.3555C2.43061 72.4854 1.83179 72.608 0.96892 73.4717L0 74.4419V102.314V130.187L0.96892 131.157C1.86586 132.055 2.36757 132.138 7.74668 132.268C14.3779 132.429 16.1058 132.206 17.2728 131.039C18.0641 130.248 18.1007 129.487 18.1007 113.867C18.1007 95.9941 18.1642 95.452 20.6195 92.3523C22.45 90.0409 25.8925 88.2896 28.5365 88.3241C32.6362 88.3778 37.3335 91.8416 38.4753 95.6526C38.8135 96.7803 38.9719 102.545 38.9762 113.863C38.98 122.971 39.1274 130.651 39.3045 130.929C39.9655 131.969 42.1649 132.34 47.6649 132.34C54.5585 132.34 55.8239 131.982 56.4636 129.846C56.7847 128.775 56.8746 122.73 56.7498 110.614C56.5935 95.4741 56.4602 92.5482 55.8183 90.1764C54.7996 86.4127 52.524 81.8598 50.455 79.4471C48.3366 76.9769 43.6146 73.7903 40.3556 72.6319C37.5796 71.6455 31.7112 71.2554 28.8232 71.8657ZM84.7539 72.1233C80.9055 73.0501 74.8709 76.1783 72.0489 78.709C59.2255 90.2091 58.6915 110.789 70.8999 122.978C76.9383 129.007 83.5026 131.919 91.7813 132.24C97.8405 132.476 102.621 131.466 107.522 128.916C112.646 126.25 116.075 123.073 119.41 117.9C122.258 113.482 121.93 112.774 115.341 109.117C112.245 107.399 110.75 106.792 110.114 106.993C109.624 107.149 108.485 108.275 107.584 109.495C105.431 112.409 103.367 114.182 100.358 115.701C95.3886 118.209 90.4171 118.286 86.3753 115.918C84.6428 114.902 82.4115 112.481 82.4115 111.617C82.4115 111.389 90.2919 108.549 99.924 105.305C111.504 101.404 117.852 99.0563 118.664 98.3736C120.173 97.1027 120.248 95.6632 118.998 91.8578C117.017 85.8241 113.904 81.3568 109.076 77.6225C102.401 72.4589 92.5794 70.2383 84.7539 72.1233ZM216.882 71.9002C216 72.108 214.558 72.6455 213.678 73.0948C211.735 74.0859 208.325 77.649 207.338 79.7197C206.941 80.5519 206.495 81.2325 206.347 81.2325C206.199 81.2325 205.737 79.7836 205.319 78.0127C204.879 76.1477 204.146 74.3112 203.575 73.6472C202.628 72.545 202.403 72.496 197.659 72.3584L192.727 72.2153L191.446 73.4969L190.164 74.7784V102.421V130.062L191.263 131.095C192.334 132.101 192.541 132.127 199.343 132.127C206.039 132.127 206.364 132.088 207.294 131.158L208.265 130.188L208.478 112.631L208.691 95.0742L209.885 93.0418C213.505 86.8829 221.806 86.7338 224.816 92.7731L225.939 95.0286V112.573C225.939 129.209 225.982 130.169 226.753 131.122C227.551 132.107 227.711 132.127 234.83 132.127C241.231 132.127 242.182 132.037 242.853 131.368C243.553 130.669 243.631 129.158 243.827 112.628L244.04 94.6483L245.073 92.8442C246.281 90.7364 248.416 89.1572 250.961 88.4889C254.416 87.5822 258.287 89.4302 260.122 92.8629C261.06 94.6185 261.078 94.9392 261.183 112.11C261.241 121.714 261.384 129.984 261.5 130.488C261.625 131.034 262.253 131.592 263.054 131.872C264.868 132.504 275.843 132.483 277.244 131.844C279.144 130.979 279.258 129.64 279.076 110.407C278.918 93.6883 278.847 92.3012 277.988 89.1908C275.127 78.8355 267.587 72.226 257.866 71.5505C251.659 71.1191 246.231 73.2098 241.671 77.7874L238.877 80.5936L236.469 77.9995C231.596 72.7464 223.711 70.2915 216.882 71.9002ZM309.413 71.8584C301.819 73.0684 293.934 77.8977 289.623 83.9791C285.479 89.8267 283.802 95.0184 283.77 102.102C283.746 107.554 284.576 111.307 286.83 115.943C293.28 129.206 307.788 135.846 322.283 132.169C326.913 130.995 329.416 129.821 333.134 127.082C338.405 123.198 343.027 116.125 344.588 109.555C345.489 105.762 345.497 98.9746 344.605 95.1892C341.423 81.6822 329.761 72.0688 316.017 71.6229C313.675 71.5467 310.703 71.6527 309.413 71.8584ZM420.068 72.0957C414.28 73.4994 408.106 77.2938 404.406 81.7223C394.867 93.1385 395.047 110.024 404.833 121.712C408.543 126.143 415.72 130.398 421.744 131.738C426.464 132.788 433.695 132.413 438.25 130.881C445.16 128.558 451.328 123.682 454.754 117.836C456.76 114.412 456.805 113.134 454.967 111.752C452.171 109.652 446.184 106.712 445.284 106.997C444.807 107.149 443.657 108.391 442.729 109.757C440.94 112.392 436.648 115.638 433.503 116.735C429.109 118.268 424.808 117.906 421.427 115.718C419.733 114.622 417.19 111.671 417.639 111.322C417.732 111.25 425.377 108.643 434.63 105.528C443.883 102.412 452.144 99.515 452.989 99.0887C455.471 97.8357 455.743 96.5376 454.414 92.2799C452.262 85.3858 448.612 80.399 442.942 76.6068C436.223 72.1127 427.274 70.3482 420.068 72.0957ZM166.748 72.8354C164.577 73.9338 164.605 73.5228 164.718 102.802C164.819 128.99 164.857 130.159 165.634 131.018C166.4 131.864 166.864 131.914 173.833 131.914C180.652 131.914 181.286 131.849 182.072 131.063C182.906 130.228 182.924 129.643 182.924 102.725C182.924 72.4219 183.037 73.7085 180.277 72.7464C178.411 72.0961 168.075 72.1642 166.748 72.8354ZM344.009 72.9517C343.386 73.3874 343.062 74.0544 343.062 74.8989C343.062 76.3857 364.792 129.897 365.887 131.107C366.524 131.81 367.248 131.914 371.482 131.914C375.991 131.914 376.408 131.845 377.196 130.956C378.575 129.403 401.078 74.9577 400.758 73.9509C400.316 72.5569 398.769 72.2886 391.185 72.2886C384.337 72.2886 383.943 72.3342 382.901 73.2469C382.004 74.0326 380.926 77.0429 376.915 89.9634C374.224 98.6305 371.957 105.913 371.876 106.148C371.727 106.584 366.831 92.0056 363.295 80.5936C360.599 71.8955 361.131 72.2886 352.077 72.2886C346.32 72.2886 344.773 72.4155 344.009 72.9517ZM464.151 72.7021C463.64 72.9168 463.017 73.4739 462.767 73.9402C462.46 74.5152 462.314 83.7491 462.314 102.646C462.314 129.094 462.353 130.541 463.092 131.21C463.753 131.808 464.977 131.914 471.185 131.914C477.93 131.914 478.564 131.848 479.349 131.063C480.184 130.228 480.201 129.643 480.201 102.551V74.8917L479.174 73.6966L478.148 72.5015L471.615 72.407C468.022 72.355 464.663 72.4879 464.151 72.7021ZM87.8281 86.359C86.9418 86.5805 85.67 87.0443 85.0018 87.3901C83.1112 88.3676 80.3987 91.7317 79.4442 94.282C77.8118 98.6462 77.2619 98.6339 89.6356 94.5158L100.693 90.8361L99.766 89.8488C98.3499 88.342 93.9423 86.3496 91.5645 86.1418C90.3954 86.0396 88.7139 86.1376 87.8281 86.359ZM423.011 86.359C419.676 87.1921 417.253 89.2211 415.515 92.6372C414.543 94.5465 413.543 97.7667 413.833 98.0563C413.948 98.1713 418.963 96.578 424.978 94.5163L435.914 90.7679L434.74 89.6508C431.878 86.9293 426.627 85.4557 423.011 86.359ZM308.752 88.8424C303.8 91.1853 301.204 95.7096 301.146 102.102C301.088 108.503 303.552 113.07 308.383 115.517C310.603 116.642 311.341 116.794 314.527 116.788C317.73 116.782 318.409 116.637 320.429 115.524C325.199 112.896 327.448 108.651 327.428 102.314C327.407 95.8634 324.814 91.1329 319.975 88.7215C316.737 87.1077 312.317 87.1554 308.752 88.8424Z" fill="#F36E21"/>
</svg>
