<svg width="964" height="125" viewBox="0 0 964 125" fill="none" xmlns="http://www.w3.org/2000/svg">
<path fill-rule="evenodd" clip-rule="evenodd" d="M203 8.136C191.678 9.992 177.966 18.516 170.441 28.375C158.544 43.965 156.591 66.419 165.59 84.177C166.933 86.827 171.008 92.151 174.646 96.008C182.498 104.331 191.462 109.221 203.262 111.617C212.808 113.555 223.634 112.41 233.651 108.403L240.224 105.773L247.386 112.886C251.324 116.799 254.905 120 255.342 120C255.779 120 258.914 117.307 262.309 114.016L268.481 108.032L261.201 100.703L253.921 93.373L257.497 87.437C259.464 84.172 261.956 78.64 263.036 75.145C265.492 67.198 265.663 53.62 263.405 45.932C257.753 26.69 241.886 12.178 222.431 8.455C214.037 6.849 211.136 6.802 203 8.136ZM351.212 18.25L351.5 27.5H360H368.5L368.788 18.25L369.075 9H360H350.925L351.212 18.25ZM608.175 19.219C605.975 24.874 602.511 33.775 600.478 39C579.665 92.483 574.097 107.027 573.822 108.628C573.529 110.331 574.349 110.526 582.91 110.79C588.538 110.963 592.742 110.658 593.369 110.031C593.946 109.454 596.287 103.699 598.57 97.241L602.723 85.5L623.611 85.236L644.5 84.971L649 97.736L653.5 110.5L663.75 110.785C671.585 111.003 673.997 110.767 673.988 109.785C673.981 109.078 665.264 86.225 654.617 59L635.258 9.5L623.717 9.219L612.176 8.938L608.175 19.219ZM811 28.701V48.403L807.133 44.379C801.044 38.042 796.99 36.497 786.5 36.517C779.053 36.531 776.75 36.932 773.155 38.836C755.545 48.164 748.309 72.706 757.348 92.448C765.213 109.628 783.804 117.261 799.276 109.664C802.453 108.104 806.278 105.284 807.776 103.399L810.5 99.971L811 105.235L811.5 110.5H820.5H829.5L829.759 59.75L830.018 9H820.509H811V28.701ZM458 56.351C458 98.11 458.213 100.28 462.806 105.232C467.103 109.865 472.078 111.111 485 110.788L496.5 110.5L496.79 102.25L497.081 94H488.24C482.698 94 478.952 93.552 478.2 92.8C477.35 91.95 477 85.978 477 72.3V53H487.042H497.084L496.792 45.25L496.5 37.5H487H477.5L477.215 27.25L476.93 17H467.465H458V56.351ZM199.398 27.395C178.89 36.945 173.966 69.023 190.476 85.521C197.544 92.583 208.239 95.851 218.14 93.974C226.635 92.362 226.659 92.198 219.516 84.471C215.971 80.637 213.054 77.006 213.035 76.402C213.016 75.798 215.736 72.695 219.079 69.506L225.158 63.707L232.41 70.91C240.888 79.332 241.212 79.243 243.616 67.86C244.881 61.873 244.964 59.227 244.063 53.673C242.039 41.198 236.425 32.868 226.8 28.058C221.48 25.399 219.624 25.001 212.59 25.01C206.186 25.018 203.437 25.515 199.398 27.395ZM616.561 47.317C612.763 57.868 609.459 67.063 609.22 67.75C608.886 68.713 612.142 69 623.393 69C631.427 69 638 68.651 638 68.225C638 67.508 624.053 28.726 623.648 28.317C623.549 28.216 620.359 36.766 616.561 47.317ZM529 36.134C516.873 38.12 506.084 46.422 500.587 58C497.772 63.926 497.501 65.383 497.513 74.5C497.525 83.228 497.867 85.229 500.201 90.236C509.911 111.057 537.076 119.143 556.164 106.895C580.853 91.052 580.331 53.582 555.235 40.206C550.371 37.613 539.153 34.725 535.5 35.124C534.95 35.185 532.025 35.639 529 36.134ZM866.353 36.008C855.204 37.546 845.104 43.955 840.928 52.142C837.837 58.199 838.168 58.686 846.25 59.984C850.237 60.624 854.264 61.363 855.198 61.625C856.34 61.946 857.4 61.128 858.433 59.13C863.383 49.557 878.615 48.4 883.974 57.19C885.424 59.568 885.994 62.247 885.996 66.702L886 72.904L880.787 70.202C876.086 67.765 874.539 67.5 865.037 67.505C853.231 67.511 849.297 68.897 843.311 75.162C839.2 79.466 837.995 82.804 838.022 89.815C838.076 103.924 847.402 112.141 863.5 112.264C872.474 112.333 876.781 110.888 882.463 105.899L886 102.793V106.396V110H895.572H905.143L904.822 82.75C904.512 56.542 904.411 55.319 902.162 50.753C896.465 39.184 883.132 33.694 866.353 36.008ZM411.252 38.513C408.366 39.978 404.429 43.018 402.502 45.268L399 49.36V43.68V38H389.988H380.975L381.238 74.25L381.5 110.5H390.5H399.5L400 86.32C400.466 63.781 400.642 61.949 402.592 59.32C407.846 52.237 416.217 50.006 422.701 53.96C428.991 57.794 429.432 59.827 429.827 86.786L430.183 111.073L439.341 110.786L448.5 110.5L448.455 84.5C448.407 56.341 447.988 53.344 443.057 45.9C438.824 39.509 433.37 36.739 424.049 36.248C417.399 35.897 415.875 36.167 411.252 38.513ZM709.5 38.353C706.75 39.636 702.813 42.558 700.75 44.846L697 49.006V43.503V38H688H679V74.5V111H688H697L697.006 92.25C697.012 70.871 697.975 63.129 701.221 58.358C707.373 49.316 721.575 50.135 725.727 59.772C727.018 62.769 727.376 67.912 727.552 86C727.673 98.375 727.823 109.063 727.886 109.75C727.968 110.649 730.528 111 737 111H746V84.682C746 53.308 745.401 50.122 738.139 42.863C730.833 35.56 719.357 33.753 709.5 38.353ZM916.096 37.801C915.329 38.057 915 48.939 915 74.083V110H924.5H934V92.182C934 72.524 935.106 66.404 939.633 61.025C943.404 56.543 945.607 55.657 954.5 55.048L962.5 54.5L962.789 45.75L963.078 37H956.855C947.461 37 939.777 41.632 934.331 50.579C933.397 52.112 933.275 51.037 933.726 45.25C934.036 41.259 933.888 37.947 933.395 37.883C930.856 37.552 917.04 37.487 916.096 37.801ZM273 64.281C273 95.698 273.597 98.879 280.861 106.133C284.658 109.924 286.532 110.978 291.185 111.94C300.944 113.957 310.798 110.559 317.334 102.922L320.893 98.765L321.197 104.632L321.5 110.5H330.5H339.5V74.5V38.5H330H320.5L320.336 60.757C320.184 81.32 320.008 83.353 318.015 87.469C314.173 95.405 304.083 98.906 297.495 94.589C292.429 91.269 291.794 87.737 291.64 62.02L291.5 38.5L282.25 38.212L273 37.925V64.281ZM351 74.5V111H360H369V74.5V38H360H351V74.5ZM532.037 53.174C523.158 55.721 518.529 63.111 518.619 74.591C518.685 82.951 521.463 89.05 526.862 92.687C540.213 101.68 555.514 91.594 555.352 73.908C555.249 62.706 550.505 55.622 541.416 53.098C536.9 51.845 536.663 51.847 532.037 53.174ZM784.129 54.623C776.433 58.458 773.597 63.211 773.151 73.023C772.87 79.202 773.191 81.45 774.804 84.596C780.068 94.864 790.404 98.616 800.025 93.75C806.613 90.418 810.307 84.539 810.814 76.578C811.038 73.069 810.673 68.54 810.004 66.513C807.588 59.192 798.726 52.08 791.946 52.022C790.542 52.01 787.024 53.18 784.129 54.623ZM863.378 80.437C853.744 84.63 855.32 95.438 865.939 97.985C878.813 101.074 891.465 90.483 883.66 83.15C879.319 79.072 869.525 77.762 863.378 80.437Z" fill="black"/>
<path fill-rule="evenodd" clip-rule="evenodd" d="M0 62.5V125H28H56V116C56 111.05 55.662 106.955 55.25 106.899C54.838 106.843 46.4 106.731 36.5 106.649L18.5 106.5L18.24 62.25L17.979 18H62.397H106.815L107.157 23.75C107.346 26.913 107.275 44.928 107 63.785L106.5 98.07L91.5 83.046C83.25 74.783 76.036 68.017 75.469 68.011C74.901 68.005 71.76 70.705 68.489 74.012L62.54 80.023L85.012 102.512L107.483 125L115.492 124.985C119.896 124.976 123.994 124.639 124.597 124.235C125.374 123.715 125.693 105.461 125.69 61.75L125.685 0H62.842H0V62.5Z" fill="#2056C3"/>
</svg>
