<svg width="618" height="116" viewBox="0 0 618 116" fill="none" xmlns="http://www.w3.org/2000/svg">
<path fill-rule="evenodd" clip-rule="evenodd" d="M244.522 40.25C243.019 41.556 241.695 43.992 241.367 46.055C240.235 53.17 248.825 58.972 256.056 55.977C262.461 53.324 264.162 45.435 259.364 40.636C255.818 37.091 248.381 36.897 244.522 40.25ZM165.451 41.713C165.795 43.246 170.931 58.675 176.864 76C186.417 103.894 188.064 107.921 191.254 111.178C196.095 116.121 202.047 117.144 208.212 114.093C215.168 110.65 214.278 112.645 231.594 61.719C235.667 49.739 239 39.727 239 39.469C239 39.211 234.601 39 229.223 39H219.447L212.618 60.75C208.863 72.712 205.067 85.087 204.183 88.25C203.299 91.413 202.293 94 201.949 94C201.604 94 197.49 81.738 192.807 66.75L184.292 39.5L174.558 39.213L164.825 38.925L165.451 41.713ZM397.238 76.75L397.5 114.5L406.722 114.787L415.943 115.074L416.222 101.287L416.5 87.5L423.054 87.209L429.609 86.918L435.981 100.959L442.354 115H452.677C458.355 115 463 114.747 463 114.437C463 114.127 459.543 107.292 455.317 99.248C450.068 89.256 448.039 84.487 448.914 84.195C451.708 83.264 457.413 77.299 459.135 73.509C461.587 68.11 461.57 57.824 459.1 52.5C456.736 47.405 451.684 42.752 446.23 40.648C442.718 39.293 437.963 39 419.468 39H396.976L397.238 76.75ZM600 77V115H609H618V77V39H609H600V77ZM347.836 54.918C341.165 57.526 337.179 60.649 333.881 65.849C332.296 68.347 331 70.704 331 71.086C331 71.468 334.648 72.765 339.107 73.969L347.215 76.156L350.492 72.578C353.309 69.503 354.394 69 358.211 69C363.142 69 366.247 71.421 367.358 76.13L367.978 78.759L355.739 79.192C346.552 79.517 342.627 80.075 340 81.43C332.209 85.446 329 90.284 329 98.016C329 106.301 333.143 111.89 341.292 114.597C349.397 117.289 360.174 114.826 366.064 108.936C367.49 107.51 368.171 107.311 368.493 108.227C371.112 115.674 370.236 115.113 378.741 114.792L386.5 114.5L386.463 93C386.429 72.885 386.286 71.233 384.248 67.357C377.965 55.412 361.209 49.688 347.836 54.918ZM485.148 54.848C478.56 57.204 475.439 59.462 471.277 64.885C467.276 70.099 465.676 75.598 465.715 84C465.78 97.702 470.648 106.525 481.063 111.821C486.953 114.815 488.486 115.158 496 115.158C503.516 115.158 505.041 114.817 510.892 111.829C515.234 109.612 518.535 107.023 520.776 104.079C524.705 98.919 524.783 99.004 513.837 96.458L506.174 94.675L503.01 97.338C496.668 102.675 486.253 99.543 484.427 91.75L483.783 89H505.023H526.263L525.787 81.577C524.973 68.892 518.932 59.794 508.402 55.395C502.318 52.852 491.442 52.597 485.148 54.848ZM550.909 54.488C543.876 56.755 534 66.353 534 70.922C534 71.883 540.567 74.079 547.663 75.491C550.294 76.015 550.938 75.769 551.489 74.034C553.619 67.325 565.884 67.059 568.89 73.657C571.202 78.733 570.767 79 560.182 79C544.403 79 536.6 82.266 532.896 90.421C530.422 95.87 530.53 100.645 533.25 106.034C538.69 116.812 555.273 119.018 566.489 110.456L570.821 107.15L571.491 109.819C572.647 114.424 573.773 115 581.622 115H589L588.956 94.25C588.925 79.548 588.522 72.406 587.573 69.748C584.021 59.794 575.43 54.037 563.182 53.405C558.128 53.145 553.93 53.515 550.909 54.488ZM266.275 55.75C267.109 58.621 280.603 97.038 282.938 103.19C286.462 112.469 293.425 117.081 301.6 115.547C305.678 114.782 311.313 110.124 312.841 106.255C314.828 101.224 331 55.228 331 54.609C331 54.274 326.613 54 321.25 54H311.5L306.163 71.524C303.227 81.162 300.37 90.699 299.812 92.719C299.106 95.277 298.575 95.952 298.063 94.945C297.659 94.15 294.672 84.613 291.425 73.75L285.52 54H275.643C266.71 54 265.815 54.167 266.275 55.75ZM416 64V74H425.55C439.148 74 442 72.266 442 64C442 55.734 439.148 54 425.55 54H416V64ZM242.451 63.268C242.183 63.965 242.085 75.778 242.232 89.518L242.5 114.5H251.5H260.5L260.767 88.25L261.033 62H251.985C245.601 62 242.794 62.373 242.451 63.268ZM490.198 69.673C487.444 71.03 484 75.352 484 77.45C484 77.753 489.175 78 495.5 78C507.788 78 508.537 77.639 505.439 73.217C503.528 70.488 498.896 67.992 495.8 68.023C494.535 68.035 492.014 68.778 490.198 69.673ZM351 90.288C347.787 91.905 346.927 97.742 349.612 99.706C351.975 101.433 358.426 101.348 361.915 99.544C364.489 98.213 368 92.763 368 90.099C368 88.553 354.142 88.707 351 90.288ZM553.228 90.23C550.603 91.495 549.254 95.582 550.695 97.905C551.239 98.782 552.782 100.04 554.123 100.699C559.746 103.465 570 97.474 570 91.423C570 89.076 569.774 89.002 562.75 89.068C558.763 89.105 554.478 89.628 553.228 90.23Z" fill="#0092FF"/>
<path fill-rule="evenodd" clip-rule="evenodd" d="M100.289 10.4235L101.447 8.94485C102.874 7.12432 105.734 5.7749 108.164 5.7749C110.339 5.7749 113.273 7.03621 114.614 8.54769C115.45 9.48991 130.052 29.3236 138.448 40.9228C140 43.0661 141.672 45.7366 142.163 46.8573C143.985 51.0101 144.1 53.2557 143.956 82.0244L143.819 109.677L142.557 111.579C141.864 112.625 140.439 114.048 139.391 114.741L137.486 116H107.936H78.3853L76.48 114.741C75.4319 114.048 74.0071 112.625 73.3136 111.579L72.0525 109.676L71.9286 78.943L71.8052 48.2095L100.289 10.4235Z" fill="#0092FF"/>
<path fill-rule="evenodd" clip-rule="evenodd" d="M97.2705 1.26324C99.6982 2.8683 100.792 5.19647 100.507 8.15323L100.289 10.4234L71.805 48.2094H42.1322C25.812 48.2094 11.9827 48.0282 11.4008 47.8068C8.57217 46.7299 6.51838 42.9264 7.09845 39.8386C7.30461 38.7411 9.8402 34.9691 15.043 28.0202C19.2457 22.4066 24.7008 15.1062 27.1646 11.7979C32.042 5.24942 33.5312 3.80596 37.461 1.81744L40.0546 0.504995L61.5388 0.241135C95.3548 -0.173825 95.0865 -0.18113 97.2705 1.26324Z" fill="#54DAF7"/>
<path fill-rule="evenodd" clip-rule="evenodd" d="M5.21966 48.7343C2.71497 50.1739 2.41463 50.4365 1.19863 52.2513L0 54.0399L0.0100586 80.766C0.0192015 105.694 0.0763421 107.617 0.858514 109.349C1.99543 111.866 5.45234 114.847 7.9776 115.486C9.35314 115.835 18.4434 116 36.2592 116C64.7296 116 64.6181 116.009 67.9584 113.446C68.7872 112.81 70.0357 111.313 70.7328 110.12L72 107.952V78.0571V48.1627L39.3129 48.0445C8.84708 47.9346 6.52983 47.9815 5.21966 48.7343Z" fill="#7A00DD"/>
</svg>
