<svg width="688" height="294" viewBox="0 0 688 294" fill="none" xmlns="http://www.w3.org/2000/svg">
<path fill-rule="evenodd" clip-rule="evenodd" d="M81.9097 206.695L76.6776 150.024L16.724 142.347C18.1206 144.188 19.5102 145.984 20.8536 147.695C31.7466 161.57 25.1647 156.326 25.1447 164.461C25.1257 172.051 23.4617 176.43 15.3657 190.195C7.63775 203.334 5.54475 209.467 6.11175 217.307C6.78075 226.556 12.0137 232.114 20.8537 232.964C27.5747 233.609 31.6598 232.015 51.6398 220.95C68.5799 211.568 73.4892 206.455 81.9097 206.695Z" fill="#00ADC5"/>
<path fill-rule="evenodd" clip-rule="evenodd" d="M130.322 94.56L208.91 73.0898C208.16 75.1301 207.365 82.6126 206.41 84.5898C202.096 93.5158 200.47 94.5249 183.905 112.047C165.327 131.7 159.686 142.276 159.613 157.59C159.561 168.405 163.169 179.511 172.399 196.958C181.148 213.496 182.91 218.912 182.91 229.28C182.91 231.166 182.877 232.711 182.79 234.039L97.4712 170.463L130.322 94.56Z" fill="#FE5A00"/>
<path fill-rule="evenodd" clip-rule="evenodd" d="M631.409 84.2878C621.196 85.6438 610.342 91.2298 601.298 99.7828L595.909 104.88V99.7698C595.909 90.7468 590.1 86.3748 576.286 85.0008C570.236 84.3998 551.344 86.7248 549.885 88.2508C549.443 88.7118 548.137 93.5898 546.981 99.0898C545.826 104.59 544.621 110.058 544.304 111.241C543.82 113.046 544.265 113.506 547.068 114.106C554.172 115.626 554.272 116.724 549.378 139.591C547.435 148.665 543.851 165.54 541.413 177.09C538.974 188.64 533.789 213.165 529.889 231.59C520.202 277.361 516.909 293.027 516.909 293.352C516.909 293.504 526.918 293.507 539.151 293.359L561.394 293.09L570.086 252.59C574.866 230.315 578.925 211.418 579.105 210.597C579.3 209.713 580.563 211.03 582.198 213.82C591.309 229.368 623.26 230.848 646.394 216.795C654.267 212.013 665.333 200.914 671.341 191.775C688.63 165.474 692.412 129.801 680.379 106.532C679.417 104.671 676.208 100.61 673.249 97.5078C663.449 87.2328 647.405 82.1638 631.409 84.2878ZM449.409 85.6938C406.261 89.0498 375.887 115.307 366.819 157.09C364.779 166.487 365.071 187.897 367.33 194.59C370.338 203.505 373.438 208.793 378.577 213.775C397.049 231.686 431.603 230.435 451.04 211.153C454.124 208.093 456.819 205.593 457.028 205.596C457.238 205.599 457.467 207.67 457.539 210.196C457.914 223.516 475.063 229.603 499.898 225.232L506.386 224.09L509.07 211.601C511.892 198.467 511.786 197.638 507.27 197.605C503.994 197.582 500.908 194.474 500.304 190.59C499.939 188.243 502.744 173.087 508.818 144.59C513.799 121.215 518.119 101.066 518.417 99.8148C518.882 97.8658 518.276 97.2478 514.184 95.4928C497.254 88.2328 469.922 84.0978 449.409 85.6938ZM246.574 107.34C244.546 117.653 242.892 126.419 242.898 126.822C242.904 127.224 253.456 127.674 266.346 127.822L289.784 128.09L253.953 173.341C234.246 198.229 217.849 219.304 217.516 220.173C215.747 224.782 213.168 224.59 276.721 224.59H336.534L340.185 207.34C342.193 197.852 344.134 188.185 344.498 185.857L345.159 181.624L319.654 181.357L294.15 181.09L328.987 137.434C348.147 113.423 364.117 92.6098 364.475 91.1838L365.126 88.5898H307.694H250.262L246.574 107.34ZM438.687 125.927C424.226 132.035 414.87 146.423 414.102 163.737C413.511 177.028 417.4 182.736 428.04 184.194C441.012 185.973 452.832 176.461 458.284 159.856C461.755 149.284 467.324 125.672 466.533 124.881C466.18 124.528 461.058 124.075 455.15 123.875C445.557 123.549 443.798 123.769 438.687 125.927ZM615.903 126.473C604.889 130.047 596.885 140.104 593.448 154.688C590.533 167.055 591.882 176.767 597.262 182.138C601.118 185.987 606.208 187.085 613.34 185.604C629.868 182.173 641.004 166.449 641.194 146.273C641.327 132.09 636.722 126.319 624.931 125.895C621.344 125.766 617.281 126.026 615.903 126.473Z" fill="#FF5A00"/>
<path fill-rule="evenodd" clip-rule="evenodd" d="M168.345 1.00783C154.897 4.06983 142.772 12.2858 134.515 23.9288C124.747 37.7038 119.856 51.1678 111.936 86.0898C103.608 122.811 96.4537 133.59 80.4117 133.59C71.4107 133.59 64.5957 129.833 51.7997 117.817C39.2047 105.989 35.5197 103.192 28.3687 100.029C22.3567 97.3708 13.4247 96.7438 9.5937 98.7118C5.7557 100.684 1.9897 104.817 0.830698 108.33C-1.6773 115.928 1.0637 122.07 15.0027 140.09L21.1917 148.09L28.3007 149.667C46.4597 153.694 60.5937 159.6 67.9247 166.223C70.1057 168.193 73.2357 172.569 74.8797 175.948C77.7327 181.81 80.9107 196.051 80.9087 202.971V206.09L85.8957 205.744C96.0687 205.039 105.78 213.1 124.564 237.839C138.033 255.578 142.519 258.888 153.19 258.965C159.344 259.009 161.2 258.585 165.758 256.091C172.951 252.156 179.499 244.713 181.4 238.311C182.231 235.515 182.91 232.937 182.91 232.582C182.91 232.227 176.797 224.996 169.325 216.513C146.574 190.685 134.034 172.847 128.253 158.09C125.897 152.078 125.504 149.608 125.468 140.59C125.429 130.643 125.606 129.721 128.83 123.09C133.721 113.028 143.163 103.847 154.029 98.5878C165.613 92.9818 175.022 90.3978 198.8 86.2938L206.19 85.0178L208.828 80.0538C213.911 70.4898 215.41 63.3228 215.41 48.5898C215.41 34.5918 214.461 29.7478 209.794 19.9278C202.641 4.87384 185.575 -2.91617 168.345 1.00783Z" fill="#007AA5"/>
</svg>
